<?xml version="1.0" encoding="utf-8"?>
<!-- Generator: Adobe Illustrator 21.1.0, SVG Export Plug-In . SVG Version: 6.00 Build 0)  -->
<svg version="1.1" id="Layer_1" xmlns="http://www.w3.org/2000/svg" xmlns:xlink="http://www.w3.org/1999/xlink" x="0px" y="0px"
	 viewBox="0 0 663.5 130" style="enable-background:new 0 0 663.5 130;" xml:space="preserve">
<style type="text/css">
	.st0{fill:#ED8B22;}
	.st1{font-family:'PTSans-Regular';}
	.st2{font-size:30.3256px;}
</style>
<g id="XMLID_36_">
	<g>
		<polygon id="XMLID_157_" class="st0" points="647.9,30.5 647.9,52.4 625.9,52.4 625.9,30.5 614,30.5 614,52.4 614,62.7 614,85.1 
			625.9,85.1 625.9,62.7 647.9,62.7 647.9,85.1 659.9,85.1 659.9,30.5 		"/>
		<polygon id="XMLID_156_" class="st0" points="401.6,30.5 388.5,30.5 376.5,30.5 363.4,30.5 363.4,40.8 376.5,40.8 376.5,85.1 
			388.5,85.1 388.5,40.8 401.6,40.8 		"/>
		<polygon id="XMLID_155_" class="st0" points="285.7,40.8 285.7,30.5 265.4,30.5 253.4,30.5 253.4,40.8 253.4,52.2 253.4,61.7 
			253.4,74.8 253.4,85.1 265.4,85.1 285.7,85.1 285.7,74.8 265.4,74.8 265.4,61.7 283.7,61.7 283.7,52.2 265.4,52.2 265.4,40.8 		
			"/>
		<path id="XMLID_152_" class="st0" d="M568.9,29C551.5,29,539,41.9,539,58.2c0,16.4,12.5,28.4,29.9,28.4c17.4,0,29.9-12,29.9-28.4
			C598.8,41.9,586.3,29,568.9,29z M568.9,76.3c-10.8,0-16.6-7.3-16.6-18c0-10.7,5.8-18.7,16.6-18.7c10.8,0,16.6,8,16.6,18.7
			C585.5,69,579.6,76.3,568.9,76.3z"/>
		<path id="XMLID_149_" class="st0" d="M440.1,30.5h-8h-0.6h-11.4v54.6h12V65.5h8c10.7,0,17.5-7.8,17.5-17.5
			C457.6,38.4,450.8,30.5,440.1,30.5z M438.4,55.8h-6.3V40.4h6.3c5,0,7.2,3.8,7.2,7.8C445.6,52.2,443.4,55.8,438.4,55.8z"/>
		<polygon id="XMLID_148_" class="st0" points="337.4,85.1 350.5,85.1 332.6,56.9 347.8,30.5 335.8,30.5 323,52.7 319.6,52.7 
			319.6,30.5 307.6,30.5 307.6,85.1 319.6,85.1 319.6,62.9 323.3,62.9 		"/>
		<path id="XMLID_147_" class="st0" d="M226.7,30.5h-10.1h-16.3h-5.6h-6c0,0-0.3,31.4-0.6,37.2c-0.1,3.5-2.2,7-8.1,7v11.1
			c14.7,0,19.4-5.9,19.7-17.5c0.1-5.6,0.3-18.4,0.5-27.5h16.4v44.3h12V30.5H226.7z"/>
		<path id="XMLID_146_" class="st0" d="M520.9,30.5h-7.6h-2.7c0,0-9,13.9-15.9,24.7c-2.9,4.7-7.7,12.8-7.7,12.8l-0.2-0.2
			c0,0,0.6-8.8,0.7-13.3c0-9.6,0-24.1,0-24.1h-12V85h2.7h7.4h2.7c0,0,8.8-13.5,15.3-23.8c2.7-4.4,8.3-13.8,8.3-13.8l0.2,0.2
			c0,0-0.7,11-0.7,14.7c0,0.1,0,0.1,0,0.1c0,9.5,0,22.6,0,22.6h12V30.5H520.9z"/>
		<path id="XMLID_143_" class="st0" d="M148,30.5h-4.1h-8.4h-3l-17.4,54.6h11.4l4.4-13.8h17.5l4.4,13.8h12.6L148,30.5z M134,61.8
			l4.2-13.3l0.2-0.6c0.6-2.1,1.1-4.7,1.1-4.7h0.4c0,0,0.9,4.1,1.6,6.3l3.9,12.4H134z"/>
	</g>
</g>
<path id="XMLID_33_" class="st0" d="M95.9,47.7c0-25.8-19.6-46-47-46c-27.4,0-47,20.2-47,46c0,18.8,10.4,33.9,26.6,40.7
	c1.7,12.3,10.1,31.8,20.3,31.8c10.2,0,18.7-19.6,20.3-31.8C85.5,81.5,95.9,66.4,95.9,47.7z M56.9,77.7l7.2-25l-15.2,6.4l-15.2-6.4
	l7.2,25c-11.8-3.8-18.1-16-18.1-30c0-16.9,9.2-29.4,26.1-29.4C65.8,18.3,75,30.8,75,47.7C75,61.7,68.7,73.9,56.9,77.7z"/>
<g id="XMLID_18_">
	<text transform="matrix(1 0 0 1 115.1395 118.7429)" class="st0 st1 st2">Продажа электротехнической продукции</text>
</g>
</svg>
